<svg width="55" height="53" viewBox="0 0 55 53" fill="none" xmlns="http://www.w3.org/2000/svg">
<path d="M26.8517 32.4438H22.7068V36.6637H26.8517V32.4438Z" fill="#306FD5"/>
<path d="M32.8329 32.4438H28.6656V36.6637H32.8329V32.4438Z" fill="#306FD5"/>
<path d="M27.7212 0.00397491C20.3832 0.00397491 14.1471 2.61235 8.96033 7.79912C3.76607 12.9859 1.16517 19.2295 1.16517 26.5375C1.16517 30.7798 2.03466 34.6924 3.82605 38.1927V38.2976C3.82605 38.2976 3.80354 38.3501 3.80354 38.425L0.835419 41.3632L4.44063 44.9685L27.6762 21.7329L51.0166 45.0509L54.7268 41.3707L52.3508 38.9947L51.7587 38.4325C51.7062 38.3801 51.7062 38.3276 51.6837 38.3276V38.3051C51.6837 38.3051 51.7062 38.2302 51.7062 38.2002C53.4452 34.6474 54.3146 30.7648 54.3146 26.5449C54.3146 19.2295 51.7062 12.9934 46.5419 7.80661C41.3477 2.61984 35.0666 0.0114661 27.7287 0.0114661L27.7212 0.00397491ZM8.03842 34.1302C8.01594 34.1827 7.96346 34.1827 7.93348 34.1827H7.83603C7.78357 34.1302 7.7611 34.0778 7.7611 34.0778C6.89164 31.7242 6.43441 29.2208 6.43441 26.5375C6.43441 20.6611 8.53311 15.6467 12.723 11.5018C16.8379 7.31192 21.8523 5.24321 27.7287 5.24321C33.605 5.24321 38.6718 7.31192 42.8392 11.5018C46.9766 15.6467 49.0229 20.6536 49.0229 26.5375C49.0229 29.1683 48.6407 31.6493 47.8761 33.9503C47.8462 33.9728 47.8236 34.0253 47.8236 34.0778L47.7187 34.3326L43.8586 30.495V21.9278H38.7468V25.3757L27.8036 14.41L8.03842 34.1227V34.1302Z" fill="#306FD5"/>
<path d="M43.4689 40.9585C43.3415 41.0859 43.214 41.1908 43.109 41.3182L43.0791 41.3407C41.4676 42.9222 39.8861 44.1815 38.3495 45.0509C35.2015 46.8123 31.7011 47.7118 27.841 47.7118C23.981 47.7118 20.5331 46.8198 17.4375 45.0509C15.8035 44.1065 14.2671 42.9297 12.8355 41.5206C12.783 41.4682 12.7305 41.4157 12.708 41.3707C12.4757 41.1683 12.2957 40.9585 12.1159 40.7786L8.4057 44.4888C8.5631 44.6911 8.73547 44.8485 8.94534 45.0509C8.99781 45.1034 9.04277 45.1559 9.12522 45.2008C14.2895 50.3876 20.5256 52.996 27.841 52.996C35.1565 52.996 41.4377 50.3876 46.6544 45.2008C46.7069 45.1484 46.7593 45.0959 46.7818 45.0509C46.8867 44.946 46.9842 44.8186 47.0891 44.6911L43.4614 40.9585H43.4689Z" fill="#306FD5"/>
<path d="M32.8329 42.6974V38.4775H28.6656V42.6974H32.8329Z" fill="#306FD5"/>
<path d="M26.8517 42.6974V38.4775H22.7068V42.6974H26.8517Z" fill="#306FD5"/>
</svg>
