<svg width="23" height="23" viewBox="0 0 23 23" fill="none" xmlns="http://www.w3.org/2000/svg">
<path d="M21.2398 16.456V19.456C21.241 19.7345 21.1839 20.0102 21.0723 20.2653C20.9608 20.5205 20.7971 20.7496 20.5919 20.9379C20.3867 21.1261 20.1444 21.2695 19.8806 21.3587C19.6168 21.4479 19.3372 21.4811 19.0598 21.456C15.9827 21.1216 13.0268 20.0701 10.4298 18.386C8.01366 16.8507 5.96517 14.8022 4.42983 12.386C2.73981 9.77719 1.68807 6.80698 1.35983 3.71599C1.33484 3.43945 1.36771 3.16075 1.45633 2.89761C1.54496 2.63447 1.6874 2.39267 1.8746 2.18761C2.06179 1.98254 2.28964 1.81869 2.54362 1.70651C2.79761 1.59432 3.07217 1.53625 3.34983 1.53599H6.34983C6.83514 1.53121 7.30562 1.70306 7.67359 2.01952C8.04156 2.33597 8.28191 2.77543 8.34983 3.25599C8.47645 4.21605 8.71128 5.15871 9.04983 6.06599C9.18438 6.42391 9.21349 6.8129 9.13374 7.18687C9.05398 7.56083 8.86869 7.9041 8.59983 8.17599L7.32983 9.44599C8.75339 11.9495 10.8263 14.0224 13.3298 15.446L14.5998 14.176C14.8717 13.9071 15.215 13.7218 15.589 13.6421C15.9629 13.5623 16.3519 13.5914 16.7098 13.726C17.6171 14.0645 18.5598 14.2994 19.5198 14.426C20.0056 14.4945 20.4492 14.7392 20.7664 15.1135C21.0835 15.4878 21.252 15.9656 21.2398 16.456Z" stroke="#0C1D3E" stroke-width="2" stroke-linecap="round" stroke-linejoin="round"/>
</svg>
